<svg width="173" height="148" viewBox="0 0 173 148" fill="none" xmlns="http://www.w3.org/2000/svg">
<path d="M115.174 45.7618C109.212 35.7343 100.244 28.0395 89.6623 23.8709C79.0804 19.7024 67.4758 19.293 56.6482 22.7062C45.8207 26.1195 36.3752 33.1647 29.7768 42.7491C23.1785 52.3336 19.7959 63.9216 20.1538 75.716C20.5117 87.5104 24.5901 98.852 31.7563 107.982C38.9226 117.112 48.7763 123.519 59.7891 126.211C70.802 128.903 82.3585 127.729 92.6664 122.871C102.974 118.012 111.458 109.741 116.8 99.34L71.5109 74.0198L115.174 45.7618Z" fill="#FF8200"/>
<path d="M133.458 76.4688C133.458 70.5009 128.631 69.2137 124.926 68.2386C122.532 67.6145 120.661 67.1074 120.661 65.6252C120.661 64.494 121.858 63.9479 123.093 63.9479C124.552 63.9479 125.712 64.689 125.712 66.2493L132.672 66.2103C132.672 61.8806 130.277 58.9552 126.012 58.097V55.4836H120.436V58.058C116.133 58.8381 113.626 61.6076 113.626 65.8202C113.626 71.7881 118.266 72.9583 121.895 73.8944C124.29 74.5185 126.199 74.9866 126.199 76.6248C126.199 77.951 124.814 78.7311 123.392 78.7311C121.821 78.7311 120.436 77.873 120.436 76.0787H113.289C113.289 80.8375 116.095 83.9579 120.661 84.816V87.5465H126.274V84.816C130.577 83.9579 133.458 81.1495 133.458 76.4688Z" fill="black"/>
<path d="M172.837 78.5998C172.837 69.4615 165.482 67.4905 159.837 65.9973C156.187 65.0416 153.336 64.2652 153.336 61.9955C153.336 60.2634 155.161 59.4272 157.043 59.4272C159.266 59.4272 161.034 60.5621 161.034 62.9512L171.64 62.8914C171.64 56.2617 167.99 51.7821 161.49 50.4681V46.4663H152.994V50.4083C146.437 51.6029 142.617 55.8436 142.617 62.2942C142.617 71.4325 149.687 73.2243 155.218 74.6578C158.867 75.6134 161.775 76.3302 161.775 78.8387C161.775 80.8695 159.666 82.064 157.499 82.064C155.104 82.064 152.994 80.75 152.994 78.0026H142.104C142.104 85.2893 146.38 90.0676 153.336 91.3816V95.5625H161.889V91.3816C168.447 90.0676 172.837 85.7672 172.837 78.5998Z" fill="black"/>
</svg>
