<svg width="138" height="99" viewBox="0 0 138 99" fill="none" xmlns="http://www.w3.org/2000/svg">
<rect x="0.367188" y="0.177734" width="137.509" height="98.7089" rx="16.9796" fill="#F58220"/>
<path fill-rule="evenodd" clip-rule="evenodd" d="M137.876 25.7824H0.367188V17.1574C0.367188 7.77977 7.96923 0.177734 17.3468 0.177734H120.896C130.274 0.177734 137.876 7.77978 137.876 17.1574V25.7824Z" fill="black"/>
<ellipse cx="16.249" cy="13.361" rx="2.99897" ry="3.12868" fill="white"/>
<ellipse cx="14.3425" cy="13.3381" rx="5.35231" ry="5.58379" fill="#FCC183"/>
<ellipse cx="14.3438" cy="13.338" rx="3.10457" ry="3.23885" fill="white"/>
<ellipse cx="24.0677" cy="13.3384" rx="1.345" ry="1.40317" fill="#FCC183"/>
<ellipse cx="29.222" cy="13.3384" rx="1.345" ry="1.40317" fill="#FCC183"/>
<ellipse cx="69.1235" cy="59.5363" rx="21.3296" ry="22.252" fill="black"/>
<path d="M63.7992 71.9484L81.037 61.0763C82.416 60.2151 82.416 58.0622 81.037 57.201L63.7992 46.3289C62.4202 45.4678 60.7457 46.5442 60.7457 48.2665L60.7457 70.0108C60.6472 71.7331 62.4202 72.8095 63.7992 71.9484Z" fill="white"/>
</svg>
