<svg width="155" height="107" viewBox="0 0 155 107" fill="none" xmlns="http://www.w3.org/2000/svg">
<path d="M154.771 81.4909H99.9559V77.0221C99.9559 54.8569 81.7044 36.8029 59.2966 36.8029C36.8887 36.8029 18.6372 54.8569 18.6372 77.0221V81.4909H0.566406V77.0221C0.566406 56.6444 8.5778 37.4881 23.1549 23.0985C37.7321 8.70899 57.0678 0.754517 77.6686 0.754517C98.2693 0.754517 117.635 8.6792 132.182 23.0985C146.729 37.5179 154.771 56.6444 154.771 77.0221V81.4909Z" fill="#FCC183"/>
<path fill-rule="evenodd" clip-rule="evenodd" d="M77.6685 0.754395C98.2693 0.754395 117.635 8.67908 132.182 23.0984C145.976 36.7134 153.897 54.6184 154.71 73.7449L154.701 73.7436C154.747 74.8325 154.77 75.9255 154.77 77.022V81.4908H99.9554V77.022C99.9554 73.2986 99.4416 69.6917 98.4804 66.2671L98.4801 66.2671C98.4306 66.0906 98.38 65.9146 98.3282 65.7392C95.1563 55.0147 87.5801 46.1329 77.6681 41.1524V41.1467C72.1451 38.369 65.9003 36.8028 59.2965 36.8028C51.1345 36.8028 43.5448 39.1861 37.1899 43.2974L20.0527 26.3458C21.0466 25.2435 22.0706 24.1709 23.1549 23.0984C37.7018 8.67918 57.0675 0.75451 77.6681 0.754395C77.6682 0.754395 77.6684 0.754395 77.6685 0.754395Z" fill="#FF8200"/>
<path d="M141.127 18.5581L71.5366 81.5442C70.6445 82.3516 70.6622 83.7582 71.5742 84.543L94.9479 104.656C95.908 105.482 97.3846 105.219 98.0003 104.112L144.216 21.013C145.316 19.0361 142.804 17.0401 141.127 18.5581Z" fill="black"/>
</svg>
