<svg width="166" height="136" viewBox="0 0 166 136" fill="none" xmlns="http://www.w3.org/2000/svg">
<path d="M129.088 93.4284H49.3008L32.7217 34.2129H147.739L129.088 93.4284Z" fill="#FF8200"/>
<path d="M116.422 107.31H58.6385L34.3874 17.8389C31.6928 7.46548 22.5727 0.33374 12.209 0.33374H0.601562V10.9891H12.209C18.8418 10.9891 22.8005 15.4147 24.3733 20.2162L50.7906 116.457H124.144L127.039 115.954V113.793C127.039 110.119 123.179 107.408 116.422 107.31Z" fill="#FF8200"/>
<path d="M117.346 135.401C124.785 135.401 130.816 129.135 130.816 121.405C130.816 113.675 124.785 107.409 117.346 107.409C109.906 107.409 103.875 113.675 103.875 121.405C103.875 129.135 109.906 135.401 117.346 135.401Z" fill="#FF8200"/>
<path d="M116.984 126.649C119.96 126.649 122.372 124.142 122.372 121.05C122.372 117.958 119.96 115.452 116.984 115.452C114.008 115.452 111.596 117.958 111.596 121.05C111.596 124.142 114.008 126.649 116.984 126.649Z" fill="#FCC183"/>
<path d="M58.4695 135.401C65.9091 135.401 71.94 129.135 71.94 121.405C71.94 113.675 65.9091 107.409 58.4695 107.409C51.03 107.409 44.999 113.675 44.999 121.405C44.999 129.135 51.03 135.401 58.4695 135.401Z" fill="#FF8200"/>
<path d="M58.4693 127.004C61.4451 127.004 63.8575 124.497 63.8575 121.405C63.8575 118.313 61.4451 115.807 58.4693 115.807C55.4934 115.807 53.0811 118.313 53.0811 121.405C53.0811 124.497 55.4934 127.004 58.4693 127.004Z" fill="#FCC183"/>
<path d="M132.845 73.6182C151.044 73.6182 165.796 58.2896 165.796 39.3809C165.796 20.4721 151.044 5.14355 132.845 5.14355C114.647 5.14355 99.8945 20.4721 99.8945 39.3809C99.8945 58.2896 114.647 73.6182 132.845 73.6182Z" fill="black"/>
<path d="M150.461 33.5665H138.441V21.0774H127.25V33.5665H115.23V45.1943H127.25V57.6833H138.441V45.1943H150.461V33.5665Z" fill="white"/>
</svg>
