<svg width="98" height="122" viewBox="0 0 98 122" fill="none" xmlns="http://www.w3.org/2000/svg">
<path d="M87.5866 90.7134L84.6815 68.393C84.4459 66.5125 84.8385 64.5503 85.7807 62.9151C98.2648 42.0663 99.207 19.9912 95.5167 3.06694C95.4382 1.43174 93.9464 0.205345 92.3761 0.614143C76.4373 4.37509 56.2586 14.9221 43.5389 33.8086C42.4397 35.362 40.8693 36.5884 39.142 37.079L18.2566 43.0475C17.707 43.211 17.3144 43.538 17.0004 44.0286L0.433397 70.0282C-0.665833 71.6634 0.747462 73.8709 2.63186 73.6256L17.6285 70.1917C18.3351 70.0282 18.9633 70.6822 18.8062 71.4181L16.8433 81.638C16.6078 82.9462 17.1574 84.3361 18.2566 85.072L32.8607 95.1284L34.431 96.1913L36.0013 97.2542L50.6054 107.311C51.7046 108.046 53.1179 108.046 54.1386 107.311L62.3828 101.424C62.9324 101.015 63.7961 101.342 63.8746 102.078L66.7012 117.776C67.1723 119.738 69.6063 120.147 70.7056 118.43L87.2725 92.3486C87.5081 91.858 87.6651 91.2857 87.5866 90.7134Z" fill="#FF8200"/>
<path d="M64.9607 45.4569C71.7316 50.1167 80.7737 48.2961 85.1568 41.3903C89.5398 34.4845 87.6041 25.1088 80.8331 20.4489C74.0622 15.789 65.0201 17.6097 60.637 24.5155C56.254 31.4212 58.1897 40.797 64.9607 45.4569Z" fill="#FCC183"/>
<path d="M68.827 39.3657C72.2994 41.7555 76.9366 40.8218 79.1844 37.2802C81.4322 33.7387 80.4394 28.9304 76.967 26.5407C73.4946 24.1509 68.8575 25.0846 66.6097 28.6262C64.3619 32.1677 65.3546 36.976 68.827 39.3657Z" fill="#F6F7FA"/>
<path d="M20.6705 86.4347C20.3921 86.2415 19.9282 86.4347 19.9282 86.8211L18.351 118.509C18.2582 120.345 20.1138 121.601 21.691 120.731L48.875 106.723C49.1533 106.53 49.2461 106.047 48.9678 105.853L20.6705 86.4347Z" fill="black"/>
</svg>
