<svg width="106" height="110" viewBox="0 0 106 110" fill="none" xmlns="http://www.w3.org/2000/svg">
<path d="M105.893 55.0191C105.893 69.7073 100.417 83.515 90.4549 93.887C80.513 104.28 67.2776 109.992 53.1983 109.992C39.119 109.992 25.8837 104.28 15.9417 93.887C5.97918 83.515 0.503906 69.7073 0.503906 55.0191C0.503906 40.3309 5.97918 26.5231 15.9417 16.1511C25.8837 5.75773 39.119 0.0456543 53.1983 0.0456543C67.2776 0.0456543 80.513 5.75773 90.4549 16.1511C100.417 26.5231 105.893 40.3309 105.893 55.0191Z" fill="#FF8200"/>
<path d="M47.3346 40.9107H41.1595C41.1595 37.8614 38.7923 35.3919 35.8694 35.3919C32.9466 35.3919 30.5794 37.8614 30.5794 40.9107H24.4043C24.4043 34.3182 29.5502 28.9497 35.8694 28.9497C42.1887 28.9497 47.3346 34.3182 47.3346 40.9107Z" fill="black"/>
<path d="M81.9762 40.9107H75.8011C75.8011 37.8614 73.4339 35.3919 70.5111 35.3919C67.5882 35.3919 65.221 37.8614 65.221 40.9107H59.0459C59.0459 34.3182 64.1918 28.9497 70.5111 28.9497C76.8303 28.9497 81.9762 34.3182 81.9762 40.9107Z" fill="black"/>
<path d="M70.51 57.9609C70.51 57.9609 86.483 65.1332 85.495 68.4402C81.2136 82.7849 68.3487 93.2427 53.1991 93.2427C38.0906 93.2427 25.2463 82.8493 20.9443 68.5476C19.9357 65.1977 35.8881 57.9609 35.8881 57.9609H70.51Z" fill="#FCC183"/>
<path d="M87.0191 54.74V57.9611C87.0191 61.6546 86.4839 65.1978 85.4547 68.5478H20.9452C19.9366 65.1978 19.3809 61.6546 19.3809 57.9611V54.74H87.0191Z" fill="white"/>
<path d="M87.0193 54.74V57.9611C87.0193 61.6546 86.4841 65.1978 85.4549 68.5478H53.2002V54.74H87.0193Z" fill="white"/>
</svg>
