<svg width="703" height="399" viewBox="0 0 703 399" fill="none" xmlns="http://www.w3.org/2000/svg">
<path d="M130.018 33.5706L116.418 82.3606L93.4678 33.9106H84.9678L63.2078 81.8506L49.4378 33.5706H16.2878L46.2078 125.371H71.7078L89.5578 84.4006L107.578 125.371H133.078L162.318 33.5706H130.018ZM225.93 31.0206C216.75 31.0206 208.25 34.2506 201.45 39.6906V0.420603H169.83V125.371H201.45V76.4106C201.45 64.6806 207.4 57.8806 216.92 57.8806C225.25 57.8806 228.99 63.3206 228.99 73.8606V125.371H260.61V70.1206C260.61 46.3206 247.01 31.0206 225.93 31.0206ZM322.07 128.431C351.99 128.431 373.58 107.861 373.58 79.4706C373.58 51.0806 351.99 30.6806 322.07 30.6806C292.15 30.6806 270.73 51.0806 270.73 79.4706C270.73 107.861 292.15 128.431 322.07 128.431ZM322.07 100.041C310.68 100.041 302.35 91.7106 302.35 79.6406C302.35 67.4006 310.68 59.0706 322.07 59.0706C333.63 59.0706 341.96 67.5706 341.96 79.6406C341.96 91.7106 333.63 100.041 322.07 100.041ZM522.492 33.5706L508.892 82.3606L485.942 33.9106H477.442L455.682 81.8506L441.912 33.5706H408.762L438.682 125.371H464.182L482.032 84.4006L500.052 125.371H525.552L554.792 33.5706H522.492ZM654.168 78.6206C654.168 51.7606 633.768 30.6806 604.188 30.6806C575.288 30.6806 554.378 51.4206 554.378 79.4706C554.378 107.521 575.458 128.431 604.188 128.431C627.138 128.431 645.838 115.341 652.298 94.4306H620.678C617.788 99.8706 611.498 103.101 604.188 103.101C594.158 103.101 587.528 97.6606 585.488 87.1206H653.658C653.998 84.2306 654.168 81.5106 654.168 78.6206ZM604.188 55.5006C613.708 55.5006 620.338 60.4306 623.058 69.6106H585.998C588.548 60.4306 595.008 55.5006 604.188 55.5006ZM276.283 194.571L273.053 201.711C265.573 195.421 255.883 191.851 245.003 191.851C216.953 191.851 196.893 212.081 196.893 240.471C196.893 269.031 216.953 289.431 245.003 289.431C255.713 289.431 265.233 286.031 272.713 279.911L275.433 286.371H299.913V194.571H276.283ZM249.253 261.551C237.353 261.551 228.683 252.541 228.683 240.471C228.683 228.571 237.353 219.731 249.253 219.731C261.153 219.731 269.823 228.571 269.823 240.471C269.823 252.541 261.153 261.551 249.253 261.551ZM367.808 194.231C356.928 194.231 349.108 197.291 342.648 204.771L337.718 194.571H316.468V286.371H348.088V239.791C348.088 228.061 352.848 223.131 363.898 223.131H376.308V194.231H367.808ZM477.812 239.621C477.812 212.761 457.412 191.681 427.832 191.681C398.932 191.681 378.022 212.421 378.022 240.471C378.022 268.521 399.102 289.431 427.832 289.431C450.782 289.431 469.482 276.341 475.943 255.431H444.322C441.432 260.871 435.142 264.101 427.832 264.101C417.802 264.101 411.172 258.661 409.132 248.121H477.302C477.643 245.231 477.812 242.511 477.812 239.621ZM427.832 216.501C437.352 216.501 443.982 221.431 446.702 230.611H409.642C412.192 221.431 418.652 216.501 427.832 216.501Z" fill="black"/>
<ellipse cx="525.453" cy="220.595" rx="176.635" ry="177.408" fill="#FF8200"/>
<mask id="path-3-inside-1" fill="white">
<path fill-rule="evenodd" clip-rule="evenodd" d="M549.713 45.1633C540.984 43.8307 532.046 43.1396 522.947 43.1396C521.717 43.1396 520.49 43.1523 519.266 43.1774L507.833 84.1921L489.859 46.2471C483.48 47.4612 477.222 49.02 471.106 50.9032L456.22 83.6975L449.253 59.27C440.016 63.5347 431.208 68.5764 422.913 74.3117L439.73 125.911H464.465L481.779 86.1709L499.258 125.911H523.993L549.713 45.1633ZM351.856 264.819C348.236 250.667 346.312 235.833 346.312 220.548C346.312 214.319 346.631 208.166 347.255 202.103C353.39 195.4 360.807 192.64 370.984 192.64H379.229V220.672H367.191C356.473 220.672 351.856 225.454 351.856 236.832V264.819ZM564.941 48.1838C556.765 56.5665 551.953 68.1366 551.953 81.3889C551.953 108.597 572.401 128.879 600.268 128.879C622.529 128.879 640.668 116.182 646.934 95.8999H616.263C613.46 101.177 607.359 104.31 600.268 104.31C590.539 104.31 584.108 99.0329 582.13 88.8093H641.253C634.134 82.3563 626.49 76.4772 618.393 71.2445C618.454 71.4359 618.514 71.6294 618.572 71.8249H582.624C584.614 64.6623 589.057 60.1671 595.354 58.6824C585.65 54.2967 575.481 50.7653 564.941 48.1838ZM429.207 190.166C457.899 190.166 477.686 210.613 477.686 236.667C477.686 239.47 477.522 242.109 477.192 244.912H411.068C413.047 255.136 419.478 260.412 429.207 260.412C436.297 260.412 442.398 257.279 445.202 252.003H475.873C469.606 272.285 451.468 284.982 429.207 284.982C401.339 284.982 380.892 264.7 380.892 237.492C380.892 210.284 401.174 190.166 429.207 190.166ZM447.51 227.928C444.872 219.023 438.441 214.241 429.207 214.241C420.302 214.241 414.036 219.023 411.563 227.928H447.51Z"/>
</mask>
<path fill-rule="evenodd" clip-rule="evenodd" d="M549.713 45.1633C540.984 43.8307 532.046 43.1396 522.947 43.1396C521.717 43.1396 520.49 43.1523 519.266 43.1774L507.833 84.1921L489.859 46.2471C483.48 47.4612 477.222 49.02 471.106 50.9032L456.22 83.6975L449.253 59.27C440.016 63.5347 431.208 68.5764 422.913 74.3117L439.73 125.911H464.465L481.779 86.1709L499.258 125.911H523.993L549.713 45.1633ZM351.856 264.819C348.236 250.667 346.312 235.833 346.312 220.548C346.312 214.319 346.631 208.166 347.255 202.103C353.39 195.4 360.807 192.64 370.984 192.64H379.229V220.672H367.191C356.473 220.672 351.856 225.454 351.856 236.832V264.819ZM564.941 48.1838C556.765 56.5665 551.953 68.1366 551.953 81.3889C551.953 108.597 572.401 128.879 600.268 128.879C622.529 128.879 640.668 116.182 646.934 95.8999H616.263C613.46 101.177 607.359 104.31 600.268 104.31C590.539 104.31 584.108 99.0329 582.13 88.8093H641.253C634.134 82.3563 626.49 76.4772 618.393 71.2445C618.454 71.4359 618.514 71.6294 618.572 71.8249H582.624C584.614 64.6623 589.057 60.1671 595.354 58.6824C585.65 54.2967 575.481 50.7653 564.941 48.1838ZM429.207 190.166C457.899 190.166 477.686 210.613 477.686 236.667C477.686 239.47 477.522 242.109 477.192 244.912H411.068C413.047 255.136 419.478 260.412 429.207 260.412C436.297 260.412 442.398 257.279 445.202 252.003H475.873C469.606 272.285 451.468 284.982 429.207 284.982C401.339 284.982 380.892 264.7 380.892 237.492C380.892 210.284 401.174 190.166 429.207 190.166ZM447.51 227.928C444.872 219.023 438.441 214.241 429.207 214.241C420.302 214.241 414.036 219.023 411.563 227.928H447.51Z" fill="#FF8200"/>
<path d="M549.713 45.1633L550.865 45.5305L551.295 44.181L549.895 43.9673L549.713 45.1633ZM519.266 43.1774L519.241 41.9678L518.342 41.9862L518.1 42.8525L519.266 43.1774ZM507.833 84.1921L506.74 84.7101L508.128 87.6407L508.998 84.517L507.833 84.1921ZM489.859 46.2471L490.952 45.7291L490.552 44.8836L489.633 45.0585L489.859 46.2471ZM471.106 50.9032L470.749 49.7469L470.229 49.9071L470.004 50.4031L471.106 50.9032ZM456.22 83.6975L455.057 84.0293L455.96 87.1974L457.322 84.1975L456.22 83.6975ZM449.253 59.27L450.417 58.9381L450.029 57.5791L448.746 58.1715L449.253 59.27ZM422.913 74.3117L422.225 73.3165L421.483 73.8293L421.762 74.6867L422.913 74.3117ZM439.73 125.911L438.58 126.286L438.852 127.121H439.73V125.911ZM464.465 125.911V127.121H465.258L465.574 126.394L464.465 125.911ZM481.779 86.1709L482.887 85.6838L481.774 83.1539L480.67 85.6877L481.779 86.1709ZM499.258 125.911L498.151 126.398L498.469 127.121H499.258V125.911ZM523.993 125.911V127.121H524.877L525.146 126.278L523.993 125.911ZM351.856 264.819L350.683 265.118L353.065 264.819H351.856ZM347.255 202.103L346.362 201.286L346.092 201.581L346.051 201.979L347.255 202.103ZM379.229 192.64H380.438V191.43H379.229V192.64ZM379.229 220.672V221.882H380.438V220.672H379.229ZM564.941 48.1838L565.228 47.0087L564.557 46.8443L564.074 47.3391L564.941 48.1838ZM646.934 95.8999L648.09 96.257L648.574 94.69H646.934V95.8999ZM616.263 95.8999V94.69H615.536L615.195 95.3322L616.263 95.8999ZM582.13 88.8093V87.5994H580.663L580.942 89.0392L582.13 88.8093ZM641.253 88.8093V90.0192H644.389L642.065 87.9129L641.253 88.8093ZM618.393 71.2445L619.049 70.2283L616.204 68.3896L617.241 71.6148L618.393 71.2445ZM618.572 71.8249V73.0347H620.192L619.732 71.4811L618.572 71.8249ZM582.624 71.8249L581.458 71.501L581.032 73.0347H582.624V71.8249ZM595.354 58.6824L595.632 59.86L599.092 59.0441L595.852 57.5799L595.354 58.6824ZM477.192 244.912V246.122H478.268L478.393 245.053L477.192 244.912ZM411.068 244.912V243.702H409.601L409.88 245.142L411.068 244.912ZM445.202 252.003V250.793H444.474L444.133 251.435L445.202 252.003ZM475.873 252.003L477.029 252.36L477.513 250.793H475.873V252.003ZM447.51 227.928V229.137H449.131L448.67 227.584L447.51 227.928ZM411.563 227.928L410.397 227.604L409.971 229.137H411.563V227.928ZM522.947 44.3495C531.984 44.3495 540.862 45.0359 549.53 46.3593L549.895 43.9673C541.107 42.6254 532.107 41.9298 522.947 41.9298V44.3495ZM519.291 44.387C520.506 44.3621 521.725 44.3495 522.947 44.3495V41.9298C521.708 41.9298 520.473 41.9425 519.241 41.9678L519.291 44.387ZM518.1 42.8525L506.668 83.8673L508.998 84.517L520.431 43.5023L518.1 42.8525ZM508.926 83.6742L490.952 45.7291L488.766 46.765L506.74 84.7101L508.926 83.6742ZM471.462 52.0595C477.536 50.1893 483.75 48.6414 490.085 47.4356L489.633 45.0585C483.21 46.2811 476.908 47.8506 470.749 49.7469L471.462 52.0595ZM470.004 50.4031L455.118 83.1974L457.322 84.1975L472.207 51.4033L470.004 50.4031ZM457.384 83.3656L450.417 58.9381L448.09 59.6018L455.057 84.0293L457.384 83.3656ZM423.601 75.3069C431.84 69.6108 440.587 64.6037 449.76 60.3684L448.746 58.1715C439.445 62.4657 430.577 67.542 422.225 73.3165L423.601 75.3069ZM421.762 74.6867L438.58 126.286L440.881 125.536L424.063 73.9368L421.762 74.6867ZM439.73 127.121H464.465V124.701H439.73V127.121ZM465.574 126.394L482.888 86.6542L480.67 85.6877L463.356 125.428L465.574 126.394ZM480.672 86.658L498.151 126.398L500.366 125.424L482.887 85.6838L480.672 86.658ZM499.258 127.121H523.993V124.701H499.258V127.121ZM525.146 126.278L550.865 45.5305L548.56 44.7961L522.84 125.544L525.146 126.278ZM353.028 264.519C349.433 250.465 347.521 235.731 347.521 220.548H345.102C345.102 235.935 347.039 250.87 350.683 265.118L353.028 264.519ZM347.521 220.548C347.521 214.361 347.839 208.249 348.458 202.227L346.051 201.979C345.423 208.083 345.102 214.278 345.102 220.548H347.521ZM348.147 202.92C354.007 196.518 361.071 193.849 370.984 193.849V191.43C360.543 191.43 352.773 194.282 346.362 201.286L348.147 202.92ZM370.984 193.849H379.229V191.43H370.984V193.849ZM378.019 192.64V220.672H380.438V192.64H378.019ZM379.229 219.462H367.191V221.882H379.229V219.462ZM367.191 219.462C361.681 219.462 357.45 220.689 354.628 223.651C351.819 226.599 350.646 231.018 350.646 236.832H353.065C353.065 231.268 354.201 227.607 356.38 225.32C358.546 223.047 361.983 221.882 367.191 221.882V219.462ZM350.646 236.832V264.819H353.065V236.832H350.646ZM553.163 81.3889C553.163 68.4381 557.861 57.1753 565.807 49.0286L564.074 47.3391C555.669 55.9577 550.743 67.8352 550.743 81.3889H553.163ZM600.268 127.669C573.052 127.669 553.163 107.912 553.163 81.3889H550.743C550.743 109.282 571.749 130.089 600.268 130.089V127.669ZM645.778 95.5427C639.681 115.277 622.043 127.669 600.268 127.669V130.089C623.016 130.089 641.655 117.087 648.09 96.257L645.778 95.5427ZM616.263 97.1097H646.934V94.69H616.263V97.1097ZM600.268 105.52C607.688 105.52 614.268 102.234 617.332 96.4675L615.195 95.3322C612.652 100.119 607.029 103.1 600.268 103.1V105.52ZM580.942 89.0392C581.97 94.3528 584.181 98.5011 587.511 101.317C590.845 104.136 595.181 105.52 600.268 105.52V103.1C595.627 103.1 591.883 101.845 589.074 99.4695C586.261 97.0912 584.268 93.4894 583.317 88.5794L580.942 89.0392ZM641.253 87.5994H582.13V90.0192H641.253V87.5994ZM617.736 72.2606C625.778 77.4576 633.37 83.2966 640.44 89.7057L642.065 87.9129C634.898 81.4161 627.202 75.4969 619.049 70.2283L617.736 72.2606ZM619.732 71.4811C619.671 71.2769 619.609 71.0746 619.544 70.8742L617.241 71.6148C617.299 71.7973 617.357 71.9819 617.412 72.1686L619.732 71.4811ZM582.624 73.0347H618.572V70.615H582.624V73.0347ZM595.076 57.5048C588.292 59.1046 583.549 63.9745 581.458 71.501L583.79 72.1487C585.678 65.3501 589.823 61.2296 595.632 59.86L595.076 57.5048ZM564.653 49.359C575.12 51.9226 585.219 55.4295 594.856 59.785L595.852 57.5799C586.081 53.1639 575.841 49.6081 565.228 47.0087L564.653 49.359ZM478.896 236.667C478.896 209.923 458.545 188.956 429.207 188.956V191.376C457.253 191.376 476.477 211.304 476.477 236.667H478.896ZM478.393 245.053C478.728 242.206 478.896 239.521 478.896 236.667H476.477C476.477 239.42 476.315 242.011 475.99 244.771L478.393 245.053ZM411.068 246.122H477.192V243.702H411.068V246.122ZM429.207 259.202C424.565 259.202 420.821 257.948 418.012 255.572C415.2 253.194 413.206 249.592 412.256 244.682L409.88 245.142C410.909 250.456 413.12 254.604 416.45 257.42C419.783 260.239 424.119 261.622 429.207 261.622V259.202ZM444.133 251.435C441.59 256.222 435.968 259.202 429.207 259.202V261.622C436.627 261.622 443.207 258.337 446.27 252.57L444.133 251.435ZM475.873 250.793H445.202V253.212H475.873V250.793ZM429.207 286.192C451.954 286.192 470.593 273.19 477.029 252.36L474.717 251.645C468.62 271.38 450.981 283.772 429.207 283.772V286.192ZM379.682 237.492C379.682 265.384 400.687 286.192 429.207 286.192V283.772C401.991 283.772 382.102 264.015 382.102 237.492H379.682ZM429.207 188.956C400.525 188.956 379.682 209.596 379.682 237.492H382.102C382.102 210.971 401.823 191.376 429.207 191.376V188.956ZM429.207 215.451C433.611 215.451 437.261 216.589 440.108 218.715C442.955 220.841 445.092 224.023 446.35 228.271L448.67 227.584C447.291 222.927 444.892 219.267 441.556 216.776C438.22 214.285 434.037 213.031 429.207 213.031V215.451ZM412.728 228.251C413.909 224.002 415.967 220.823 418.713 218.703C421.456 216.584 424.977 215.451 429.207 215.451V213.031C424.532 213.031 420.467 214.29 417.233 216.788C414.001 219.284 411.69 222.949 410.397 227.604L412.728 228.251ZM447.51 226.718H411.563V229.137H447.51V226.718Z" fill="#FCC183" mask="url(#path-3-inside-1)"/>
<path d="M566.424 222.316C567.605 221.135 567.605 219.22 566.424 218.038L547.175 198.789C545.994 197.608 544.079 197.608 542.897 198.789C541.716 199.97 541.716 201.886 542.897 203.067L560.008 220.177L542.897 237.288C541.716 238.469 541.716 240.384 542.897 241.565C544.079 242.746 545.994 242.746 547.175 241.565L566.424 222.316ZM485.135 223.202H564.285V217.153H485.135V223.202Z" fill="white"/>
</svg>
