<svg width="251" height="35" viewBox="0 0 251 35" fill="none" xmlns="http://www.w3.org/2000/svg">
<path d="M51.8209 0.19043H34.7363V34.2631H51.8209V0.19043Z" fill="#FF8200"/>
<path d="M86.7172 11.6603L86.2373 13.196C84.8455 11.9482 83.0699 11.2764 81.0543 11.2764C76.3032 11.2764 72.752 14.8276 72.752 19.6266C72.752 24.4255 76.3032 28.0247 81.0543 28.0247C83.0699 28.0247 84.7975 27.3529 86.1893 26.1531L89.9325 28.0727V11.7563H86.7172V11.6603ZM81.3902 23.8976C78.8947 23.8976 77.0711 22.026 77.0711 19.5786C77.0711 17.0831 78.8947 15.2595 81.3902 15.2595C83.8857 15.2595 85.7094 17.1311 85.7094 19.5786C85.7094 22.074 83.8857 23.8976 81.3902 23.8976Z" fill="black"/>
<path d="M105.625 5.99707V12.5717C104.378 11.7558 102.938 11.2759 101.306 11.2759C96.5072 11.2759 93.0039 14.8272 93.0039 19.6261C93.0039 24.4251 96.5072 28.0243 101.306 28.0243C103.226 28.0243 104.954 27.3525 106.249 26.2487L109.897 28.6002V5.99707H105.625ZM101.642 23.8972C99.1467 23.8972 97.323 22.0256 97.323 19.5781C97.323 17.0827 99.1467 15.2591 101.642 15.2591C104.138 15.2591 105.961 17.1307 105.961 19.5781C105.961 22.0256 104.09 23.8972 101.642 23.8972Z" fill="black"/>
<path d="M120.359 17.7551C118.727 17.4672 117.384 17.2272 117.384 16.1714C117.384 15.2596 118.152 14.6358 119.495 14.6358C120.983 14.6358 121.847 15.2596 121.895 16.5074H125.974C125.974 13.3401 123.43 11.2285 119.639 11.2285C115.8 11.2285 113.305 13.2921 113.305 16.3154C113.305 20.0106 116.52 20.7305 119.063 21.1624C120.743 21.4503 122.087 21.7382 122.087 22.842C122.087 23.8978 121.031 24.4257 119.831 24.4257C118.296 24.4257 117.24 23.7058 117.192 22.3141H113.017C113.065 25.7214 115.704 27.9769 119.639 27.9769C123.622 27.9769 126.262 25.8653 126.262 22.65C126.262 18.7629 122.951 18.235 120.359 17.7551Z" fill="black"/>
<path d="M137.969 11.2279C136.338 11.2279 134.85 11.7078 133.65 12.5237V5.99707H129.379V27.4964H132.546L133.026 26.1527C134.37 27.2565 136.05 27.9283 137.969 27.9283C142.816 27.9283 146.272 24.3771 146.272 19.5781C146.272 14.7792 142.816 11.2279 137.969 11.2279ZM137.633 23.8972C135.138 23.8972 133.314 22.0256 133.314 19.5781C133.314 17.0827 135.138 15.2591 137.633 15.2591C140.129 15.2591 141.952 17.1307 141.952 19.5781C141.952 22.0736 140.129 23.8972 137.633 23.8972Z" fill="black"/>
<path d="M162.296 11.6583L161.864 13.194C160.472 11.9463 158.697 11.2744 156.681 11.2744C151.93 11.2744 148.379 14.8256 148.379 19.6246C148.379 24.4236 151.93 28.0228 156.681 28.0228C158.697 28.0228 160.473 27.3509 161.816 26.1512L165.511 28.0708V11.7543H162.296V11.6583ZM156.969 23.8957C154.474 23.8957 152.65 22.0241 152.65 19.5766C152.65 17.0812 154.474 15.2575 156.969 15.2575C159.465 15.2575 161.288 17.1291 161.288 19.5766C161.288 22.0721 159.465 23.8957 156.969 23.8957Z" fill="black"/>
<path d="M169.604 5.99707V27.4964H173.875V5.99707H169.604Z" fill="black"/>
<path d="M190.903 11.6583L190.471 13.194C189.079 11.9463 187.303 11.2744 185.288 11.2744C180.537 11.2744 176.985 14.8256 176.985 19.6246C176.985 24.4236 180.537 28.0228 185.288 28.0228C187.303 28.0228 189.079 27.3509 190.423 26.1512L194.118 28.0708V11.7543H190.903V11.6583ZM185.576 23.8957C183.08 23.8957 181.257 22.0241 181.257 19.5766C181.257 17.0812 183.08 15.2576 185.576 15.2576C188.071 15.2576 189.895 17.1291 189.895 19.5766C189.895 22.0721 188.071 23.8957 185.576 23.8957Z" fill="black"/>
<path d="M207.175 11.2744C205.015 11.2744 203.143 12.1862 201.944 13.6259L201.08 11.6583H198.152V27.4949H202.423V19.1927C202.423 16.6492 203.767 15.0656 205.975 15.0656C207.846 15.0656 208.758 16.2173 208.758 18.6168V27.5429H213.029V17.945C213.077 13.9138 210.822 11.2744 207.175 11.2744Z" fill="black"/>
<path d="M224.357 23.8978C222.054 23.8978 220.278 21.9782 220.278 19.5307C220.278 17.0833 222.006 15.2117 224.357 15.2117C226.085 15.2117 227.477 16.1235 228.197 17.7071H232.468C231.652 13.82 228.485 11.2285 224.357 11.2285C219.558 11.2285 215.911 14.7797 215.911 19.5307C215.911 24.2817 219.558 27.9289 224.309 27.9289C227.717 27.9289 230.548 26.0573 231.844 23.1779L228.149 21.2584C227.429 22.938 226.037 23.8978 224.357 23.8978Z" fill="black"/>
<path d="M250.656 19.5317C250.656 14.9727 247.297 11.2295 242.45 11.2295C237.746 11.2295 234.243 14.8287 234.243 19.5797C234.243 22.0752 235.251 24.2827 236.883 25.7704C237.938 26.7301 239.234 27.402 240.674 27.7379C241.25 27.8819 241.874 27.9299 242.45 27.9299C245.425 27.9299 247.92 26.5382 249.408 24.1867L246.721 22.795L245.809 22.3151C245.185 23.4668 243.937 24.1387 242.45 24.1387C240.386 24.1387 238.946 22.939 238.61 20.7794H250.56C250.608 20.3475 250.656 19.9636 250.656 19.5317ZM238.706 17.8521C239.186 15.9805 240.578 14.8767 242.45 14.8767C244.369 14.8767 245.761 15.9325 246.337 17.8521H238.706Z" fill="black"/>
<path d="M17.7223 0.173815L0.657227 17.2461L17.7298 34.3109L34.7949 17.2386L17.7223 0.173815Z" fill="#FF8200"/>
</svg>
