<svg width="65" height="84" viewBox="0 0 65 84" fill="none" xmlns="http://www.w3.org/2000/svg">
<path d="M49.6232 33.7981C49.6232 33.7981 49.6232 22.7546 49.6232 19.2971C49.6232 10.145 41.9322 2.72461 32.4464 2.72461C22.9605 2.72461 15.2695 10.145 15.2695 19.2971C15.2695 22.7546 15.2695 33.7981 15.2695 33.7981" stroke="black" stroke-width="4"/>
<path fill-rule="evenodd" clip-rule="evenodd" d="M32.4458 83.5168C50.233 83.5168 64.6524 69.605 64.6524 52.444C64.6524 35.2829 50.233 21.3711 32.4458 21.3711C14.6586 21.3711 0.239258 35.2829 0.239258 52.444C0.239258 69.605 14.6586 83.5168 32.4458 83.5168Z" fill="#FF8200"/>
<path fill-rule="evenodd" clip-rule="evenodd" d="M32.4455 62.7991C38.3746 62.7991 43.181 58.1618 43.181 52.4415C43.181 46.7212 38.3746 42.084 32.4455 42.084C26.5164 42.084 21.71 46.7212 21.71 52.4415C21.71 58.1618 26.5164 62.7991 32.4455 62.7991Z" fill="black"/>
<path fill-rule="evenodd" clip-rule="evenodd" d="M32.4484 79.4944C33.2635 79.4944 33.9242 78.8569 33.9242 78.0704C33.9242 77.284 33.2635 76.6465 32.4484 76.6465C31.6334 76.6465 30.9727 77.284 30.9727 78.0704C30.9727 78.8569 31.6334 79.4944 32.4484 79.4944Z" fill="black"/>
<path fill-rule="evenodd" clip-rule="evenodd" d="M32.4484 28.2366C33.2635 28.2366 33.9242 27.599 33.9242 26.8126C33.9242 26.0262 33.2635 25.3887 32.4484 25.3887C31.6334 25.3887 30.9727 26.0262 30.9727 26.8126C30.9727 27.599 31.6334 28.2366 32.4484 28.2366Z" fill="black"/>
<path fill-rule="evenodd" clip-rule="evenodd" d="M5.88104 53.8704C6.69609 53.8704 7.35681 53.2328 7.35681 52.4464C7.35681 51.66 6.69609 51.0225 5.88104 51.0225C5.066 51.0225 4.40527 51.66 4.40527 52.4464C4.40527 53.2328 5.066 53.8704 5.88104 53.8704Z" fill="black"/>
<path fill-rule="evenodd" clip-rule="evenodd" d="M59.0099 53.8704C59.825 53.8704 60.4857 53.2328 60.4857 52.4464C60.4857 51.66 59.825 51.0225 59.0099 51.0225C58.1949 51.0225 57.5342 51.66 57.5342 52.4464C57.5342 53.2328 58.1949 53.8704 59.0099 53.8704Z" fill="black"/>
<path fill-rule="evenodd" clip-rule="evenodd" d="M56.7227 65.97C57.1303 65.289 56.8884 64.4182 56.1826 64.025C55.4768 63.6318 54.5742 63.8651 54.1666 64.5462C53.7591 65.2272 54.0009 66.098 54.7067 66.4912C55.4126 66.8844 56.3152 66.6511 56.7227 65.97Z" fill="black"/>
<path fill-rule="evenodd" clip-rule="evenodd" d="M10.7159 40.3401C11.1235 39.6591 10.8817 38.7884 10.1758 38.3952C9.46996 38.002 8.56737 38.2354 8.15982 38.9164C7.75226 39.5974 7.99408 40.4681 8.69993 40.8613C9.40577 41.2545 10.3084 41.0211 10.7159 40.3401Z" fill="black"/>
<path fill-rule="evenodd" clip-rule="evenodd" d="M20.4395 75.3499C20.8471 74.6689 20.6053 73.798 19.8994 73.4049C19.1936 73.0117 18.291 73.245 17.8834 73.926C17.4759 74.6071 17.7177 75.4779 18.4236 75.8711C19.1294 76.2643 20.032 76.031 20.4395 75.3499Z" fill="black"/>
<path fill-rule="evenodd" clip-rule="evenodd" d="M47.0059 30.9612C47.4135 30.2802 47.1716 29.4094 46.4658 29.0162C45.76 28.623 44.8574 28.8563 44.4498 29.5374C44.0423 30.2184 44.2841 31.0893 44.9899 31.4824C45.6958 31.8756 46.5984 31.6423 47.0059 30.9612Z" fill="black"/>
<path fill-rule="evenodd" clip-rule="evenodd" d="M56.1826 40.8588C56.8884 40.4656 57.1303 39.5948 56.7227 38.9138C56.3152 38.2327 55.4126 37.9994 54.7067 38.3926C54.0009 38.7857 53.7591 39.6566 54.1666 40.3376C54.5742 41.0187 55.4768 41.252 56.1826 40.8588Z" fill="black"/>
<path fill-rule="evenodd" clip-rule="evenodd" d="M10.1797 66.4876C10.8855 66.0945 11.1273 65.2237 10.7198 64.5427C10.3122 63.8617 9.40965 63.6283 8.70381 64.0215C7.99798 64.4147 7.75616 65.2855 8.16371 65.9665C8.57126 66.6475 9.47383 66.8808 10.1797 66.4876Z" fill="black"/>
<path fill-rule="evenodd" clip-rule="evenodd" d="M46.4678 75.8704C47.1736 75.4773 47.4154 74.6065 47.0079 73.9255C46.6003 73.2445 45.6977 73.0112 44.9919 73.4043C44.2861 73.7975 44.0442 74.6683 44.4518 75.3493C44.8593 76.0303 45.7619 76.2636 46.4678 75.8704Z" fill="black"/>
<path fill-rule="evenodd" clip-rule="evenodd" d="M19.8985 31.4758C20.6043 31.0826 20.8461 30.2119 20.4386 29.531C20.031 28.85 19.1284 28.6167 18.4226 29.0098C17.7167 29.403 17.4749 30.2737 17.8825 30.9547C18.29 31.6356 19.1926 31.8689 19.8985 31.4758Z" fill="black"/>
<path fill-rule="evenodd" clip-rule="evenodd" d="M32.4472 44.1553C31.32 44.1553 30.2465 44.3707 29.2588 44.7519L32.4472 52.4424L35.6357 44.7519C34.648 44.3707 33.5745 44.1553 32.4472 44.1553Z" fill="#FF8200"/>
<path fill-rule="evenodd" clip-rule="evenodd" d="M32.4472 52.4414L29.2588 60.1318C30.2465 60.5131 31.32 60.7285 32.4472 60.7285C33.5745 60.7285 34.648 60.5131 35.6357 60.1318L32.4472 52.4414Z" fill="#FF8200"/>
</svg>
