<svg width="52" height="82" viewBox="0 0 52 82" fill="none" xmlns="http://www.w3.org/2000/svg">
<path fill-rule="evenodd" clip-rule="evenodd" d="M17.7412 18.9019C17.7412 13.3254 26.1429 4.76367 26.1429 4.76367C26.1429 4.76367 34.5446 13.3254 34.5446 18.9019C34.5446 24.4785 30.7828 26.981 26.1429 26.981C21.5031 26.981 17.7412 24.4785 17.7412 18.9019Z" fill="#FF8200"/>
<path fill-rule="evenodd" clip-rule="evenodd" d="M26.1419 14.8598C32.5062 8.80045 40.8448 10.8202 40.8448 10.8202C40.8448 10.8202 34.5436 18.0147 34.5436 22.9389C31.0905 26.2594 31.9411 24.9587 26.1419 24.9587C20.3426 24.9587 22.0208 18.7842 26.1419 14.8598Z" fill="#FF8200"/>
<path fill-rule="evenodd" clip-rule="evenodd" d="M26.1415 14.8606C19.7772 8.80149 11.4385 10.8212 11.4385 10.8212C11.4385 10.8212 17.7398 18.0154 17.7398 22.9395C21.1929 26.2599 20.3422 24.9592 26.1415 24.9592C31.9407 24.9592 30.2625 18.7849 26.1415 14.8606Z" fill="#FF8200"/>
<path fill-rule="evenodd" clip-rule="evenodd" d="M26.1432 8.80444C28.4633 8.80444 30.3441 6.99571 30.3441 4.76453C30.3441 2.53334 28.4633 0.724609 26.1432 0.724609C23.8232 0.724609 21.9424 2.53334 21.9424 4.76453C21.9424 6.99571 23.8232 8.80444 26.1432 8.80444Z" fill="black"/>
<path fill-rule="evenodd" clip-rule="evenodd" d="M5.13737 69.3965H47.1459C49.4669 69.3965 51.3467 71.2041 51.3467 73.4359V81.5146H0.936523V73.4359C0.936523 71.2041 2.8164 69.3965 5.13737 69.3965Z" fill="#FF8200"/>
<path fill-rule="evenodd" clip-rule="evenodd" d="M34.5427 31.0215H17.7414C17.7414 31.0215 19.8418 31.0174 19.8418 35.061C19.8418 47.1391 7.23926 65.3572 7.23926 65.3572H45.0469C45.0469 65.3572 32.4444 47.0361 32.4444 35.061C32.4444 31.0801 34.5427 31.0215 34.5427 31.0215Z" fill="#FF8200"/>
<path fill-rule="evenodd" clip-rule="evenodd" d="M5.13867 69.3958H47.1472V67.3761C47.1472 66.2613 46.2062 65.3564 45.0468 65.3564H7.2391C6.07966 65.3564 5.13867 66.2613 5.13867 67.3761V69.3958Z" fill="black"/>
<path fill-rule="evenodd" clip-rule="evenodd" d="M17.7409 31.0205H34.5443C36.8653 31.0205 38.7452 29.2128 38.7452 26.981C38.7452 24.7491 36.8653 22.9414 34.5443 22.9414H17.7409C15.4199 22.9414 13.54 24.7491 13.54 26.981C13.54 29.2128 15.4199 31.0205 17.7409 31.0205Z" fill="black"/>
</svg>
