<svg width="93" height="79" viewBox="0 0 93 79" fill="none" xmlns="http://www.w3.org/2000/svg">
<path d="M38.4107 14.3184H54.466C72.8567 14.3184 84.2413 29.7381 89.2039 47.1203L91.5392 54.69C95.3341 67.3061 80.4464 78.8008 67.0184 78.8008H25.8584C12.4303 78.8008 -2.45739 67.3061 1.33751 54.69L3.67283 47.1203C8.63538 29.7381 20.312 14.3184 38.4107 14.3184Z" fill="#FF8200"/>
<path d="M40.7828 0.724609C43.2253 0.724609 45.2608 2.6796 45.2608 5.0256C45.2608 7.37159 43.2253 9.32659 40.7828 9.32659C38.3402 9.52209 36.3047 7.56709 36.3047 5.2211C36.3047 2.6796 38.3402 0.724609 40.7828 0.724609Z" fill="black"/>
<path d="M52.0937 0.724609C54.5363 0.724609 56.5717 2.67957 56.5717 5.02551C56.5717 7.37146 54.5363 9.32642 52.0937 9.32642C49.6511 9.32642 47.6156 7.37146 47.6156 5.02551C47.412 2.67957 49.4475 0.724609 52.0937 0.724609Z" fill="black"/>
<path d="M84.7056 33.6621C81.567 27.5853 77.2212 22.2378 71.9097 18.5917C67.0811 15.1887 61.0453 13.2441 54.2852 13.2441H38.5922C31.8321 13.2441 26.0378 15.1887 20.9677 18.5917C15.6562 22.2378 11.3105 27.5853 8.17188 33.6621" stroke="black" stroke-width="4" stroke-miterlimit="22.9256" stroke-linecap="round" stroke-linejoin="round"/>
</svg>
